# AST/ASF file generated using VICON BodyLanguage
# -----------------------------------------------
:version 1.10
:name VICON
:units
  mass 1.0
  length 0.45
  angle deg
:documentation
   .ast/.asf automatically generated from VICON data using
   VICON BodyBuilder and BodyLanguage model FoxedUp or BRILLIANT.MOD
:root
   order TX TY TZ RX RY RZ
   axis XYZ
   position 0 0 0  
   orientation 0 0 0 
:bonedata
  begin
     id 1 
     name lhipjoint
     direction 0.710188 -0.616876 0.339259 
     length 2.5669 
     axis 0 0 0  XYZ
  end
  begin
     id 2 
     name lfemur
     direction 0.34202 -0.939693 0  
     length 7.12796  
     axis 0 0 20  XYZ
    dof rx ry rz
    limits (-160.0 20.0)
           (-70.0 70.0)
           (-60.0 70.0)
  end
  begin
     id 3 
     name ltibia
     direction 0.34202 -0.939693 0   
     length 7.58108   
     axis 0 0 20   XYZ
    dof rx
    limits (-10.0 170.0)
  end
  begin
     id 4 
     name lfoot
     direction 0.0669471 -0.183936 0.980656   
     length 2.17365   
     axis -90 7.62852e-016 20   XYZ
    dof rx rz
    limits (-45.0 90.0)
           (-70.0 20.0)
  end
  begin
     id 5 
     name ltoes
     direction 1.53508e-011 -4.21705e-011 1   
     length 1.09427   
     axis -90 7.62852e-016 20   XYZ
    dof rx
    limits (-90.0 20.0)
  end
  begin
     id 6 
     name rhipjoint
     direction -0.700191 -0.625589 0.34405   
     length 2.53115  
     axis 0 0 0  XYZ 
  end
  begin
     id 7 
     name rfemur
     direction -0.34202 -0.939693 0   
     length 7.33006   
     axis 0 0 -20   XYZ
    dof rx ry rz
    limits (-160.0 20.0)
           (-70.0 70.0)
           (-70.0 60.0)
  end
  begin
     id 8 
     name rtibia
     direction -0.34202 -0.939693 0   
     length 7.64926   
     axis 0 0 -20   XYZ
    dof rx
    limits (-10.0 170.0)
 end
 begin
     id 9 
     name rfoot
     direction -0.0688927 -0.189281 0.979503   
     length 2.20493  
     axis -90 -7.62852e-016 -20   XYZ
    dof rx rz
    limits (-45.0 90.0)
           (-20.0 70.0)
  end
  begin
     id 10 
     name rtoes
     direction -1.53567e-011 -4.21933e-011 1   
     length 1.10919   
     axis -90 -7.62852e-016 -20   XYZ
    dof rx
    limits (-90.0 20.0)
  end
  begin
     id 11 
     name lowerback
     direction -0.0167868 0.989873 -0.140959   
     length 2.14596   
     axis 0 0 0   XYZ
    dof rx ry rz
    limits (-20.0 45.0)
           (-30.0 30.0)
           (-30.0 30.0)
  end
  begin
     id 12 
     name upperback
     direction 0.0129109 0.998033 0.0613525   
     length 2.10457   
     axis 0 0 0   XYZ
    dof rx ry rz
    limits (-20.0 45.0)
           (-30.0 30.0)
           (-30.0 30.0)
  end
  begin
     id 13 
     name thorax
     direction 0.0177047 0.991119 0.131797   
     length 2.17652   
     axis 0 0 0   XYZ
    dof rx ry rz
    limits (-20.0 45.0)
           (-30.0 30.0)
           (-30.0 30.0)
  end
  begin
     id 14 
     name lowerneck
     direction -0.0336893 0.997548 0.0613464   
     length 1.8912   
     axis 0 0 0   XYZ
    dof rx ry rz
    limits (-20.0 45.0)
           (-30.0 30.0)
           (-30.0 30.0)
  end
  begin
     id 15 
     name upperneck
     direction 0.0435909 0.997179 -0.0611028   
     length 1.8829   
     axis 0 0 0   XYZ
    dof rx ry rz
    limits (-20.0 45.0)
           (-30.0 30.0)
           (-30.0 30.0)
  end
  begin
     id 16
     name head
     direction 0.0175076 0.999444 -0.0283782  
     length 1.93197  
     axis 0 0 0   XYZ
    dof rx ry rz
    limits (-20.0 45.0)
           (-30.0 30.0)
           (-30.0 30.0)
  end
  begin
     id 17 
     name lclavicle
     direction 0.919164 0.389875 0.0559876  
     length 3.60004  
     axis 0 0 0   XYZ
    dof ry rz
    limits (-20.0 10.0)
           (0.0 20.0)
  end
  begin
     id 18 
     name lhumerus
     direction 1 -4.48958e-011 6.89191e-027   
     length 5.43301   
     axis 180 -30 -90   XYZ
    dof rx ry rz
    limits (-60.0 90.0)
           (-90.0 90.0)
           (-90.0 90.0)
  end
  begin
     id 19
     name lradius
     direction 1 -4.4897e-011 3.24727e-027   
     length 3.15936   
     axis 180 -30 -90   XYZ
    dof rx
    limits (-10.0 170.0)
  end
  begin
     id 20
     name lwrist
     direction 1 -4.4897e-011 9.00228e-027   
     length 1.57968   
     axis -6.29373e-015 90 90   XYZ
    dof ry
    limits (-180.0 0.0)
 end
  begin
     id 21 
     name lhand
     direction 1 -4.48968e-011 1.80042e-026   
     length 0.712827   
     axis -1.14882e-014 90 90   XYZ
    dof rx rz
    limits (-90.0 90.0)
           (-45.0 45.0)
  end
  begin
     id 22 
     name lfingers
     direction 1 -4.49019e-011 3.60267e-026   
     length 0.574699   
     axis -2.29769e-014 90 90   XYZ
    dof rx
    limits (0.0 90.0)
  end
  begin
     id 23
     name lthumb
     direction 0.707107 -6.3498e-011 0.707107   
     length 0.825157   
     axis -90 45 5.37419e-014   XYZ
    dof rx rz
    limits (-45.0 45.0)
           (-45.0 45.0)
  end
  begin
     id 24 
     name rclavicle
     direction -0.890334 0.455305 -0.00132111   
     length 3.51494  
     axis 0 0 0   XYZ 
    dof ry rz
    limits (-10.0 20.0)
           (-20.0 0.0)
  end
  begin
     id 25 
     name rhumerus
     direction -1 -4.48967e-011 5.07175e-028  
     length 5.34194   
     axis 180 30 90   XYZ
    dof rx ry rz
    limits (-90.0 60.0)
           (-90.0 90.0)
           (-90.0 90.0)
  end
  begin
     id 26 
     name rradius
     direction -1 -4.48955e-011 3.30467e-027   
     length 3.19351   
     axis 180 30 90   XYZ
    dof rx
    limits (-10.0 170.0)
  end
  begin
     id 27 
     name rwrist
     direction -1 -4.48968e-011 9.00208e-027   
     length 1.59676   
     axis -6.29373e-015 -90 -90   XYZ
    dof ry
    limits (-180.0 0.0)
  end
  begin
     id 28
     name rhand
     direction -1 -4.49e-011 1.80099e-026   
     length 0.743862   
     axis -1.14882e-014 -90 -90   XYZ
    dof rx rz
    limits (-90.0 90.0)
           (-45.0 45.0)
  end
  begin
     id 29
     name rfingers
     direction -1 -4.49009e-011 3.6023e-026   
     length 0.599721   
     axis -2.29769e-014 -90 -90   XYZ
    dof rx
    limits (0.0 90.0)
  end
  begin
     id 30
     name rthumb
     direction -0.707107 -6.35025e-011 0.707107   
     length 0.861083   
     axis -90 -45 -5.37419e-014   XYZ
    dof rx rz
    limits (-45.0 45.0)
           (-45.0 45.0)
  end
:hierarchy
  begin
    root lhipjoint rhipjoint lowerback
    lhipjoint lfemur
    lfemur ltibia
    ltibia lfoot
    lfoot ltoes
    rhipjoint rfemur
    rfemur rtibia
    rtibia rfoot
    rfoot rtoes
    lowerback upperback
    upperback thorax
    thorax lowerneck lclavicle rclavicle
    lowerneck upperneck
    upperneck head
    lclavicle lhumerus
    lhumerus lradius
    lradius lwrist
    lwrist lhand lthumb
    lhand lfingers
    rclavicle rhumerus
    rhumerus rradius
    rradius rwrist
    rwrist rhand rthumb
    rhand rfingers
  end

#!OML:ASF H:\Martial Arts Walks\Project 1\Capture day 1\Session 1\male.ASF
:FULLY-SPECIFIED
:DEGREES
277
root -4.25924 15.1686 -21.6188 7.05208 39.9373 -0.899424
lowerback 16.3151 0.427807 -6.81809
upperback -0.637325 -0.458077 2.83806
thorax -9.8319 0.227826 7.12787
lowerneck 4.24968 -11.1416 -12.6792
upperneck -1.41747 -15.4228 16.6249
head 1.21245 -7.87665 6.78838
rclavicle 8.68689e-014 1.70955e-014
rhumerus -21.3435 14.2859 -59.1905
rradius 97.6219
rwrist -6.42679
rhand -25.3324 -38.1112
rfingers 7.12502
rthumb 1.19054 -68.0877
lclavicle 8.68689e-014 1.70955e-014
lhumerus -30.0121 -29.435 91.0888
lradius 103.932
lwrist 31.5194
lhand -10.833 11.0902
lfingers 7.12502
lthumb 15.1814 40.5133
rfemur -52.233 -21.0251 10.594
rtibia 57.113
rfoot -6.11475 8.63529
rtoes -5.6053
lfemur -19.9198 19.9994 -4.94542
ltibia 66.2745
lfoot -14.6949 26.939
ltoes -5.36421
278
root -4.26527 15.1793 -21.5554 7.04626 39.0812 -0.741184
lowerback 16.2953 0.422481 -6.74908
upperback -0.691116 -0.456939 2.79155
thorax -9.88121 0.226872 7.03623
lowerneck 4.11553 -11.0119 -12.569
upperneck -1.12429 -15.2525 16.2812
head 1.25647 -7.77843 6.6629
rclavicle 8.98507e-014 -1.72943e-014
rhumerus -21.0471 14.5251 -59.3243
rradius 97.1356
rwrist -6.44686
rhand -25.2272 -38.2425
rfingers 7.12502
rthumb 1.2921 -68.2184
lclavicle 8.98507e-014 -1.72943e-014
lhumerus -30.0283 -29.4989 91.0882
lradius 103.819
lwrist 31.3847
lhand -11.1456 11.347
lfingers 7.12502
lthumb 14.8802 40.7926
rfemur -52.1022 -20.504 10.8676
rtibia 56.8225
rfoot -6.57007 8.28721
rtoes -6.02719
lfemur -19.6642 19.3546 -4.88432
ltibia 66.5294
lfoot -13.6322 26.8484
ltoes -2.86378
279
root -4.27072 15.1958 -21.4908 6.89156 38.2318 -0.700303
lowerback 16.3392 0.491671 -6.5525
upperback -0.712913 -0.333534 2.75558
thorax -9.95195 0.27806 6.85357
lowerneck 4.18647 -11.0013 -11.8413
upperneck -1.24066 -15.1822 15.4655
head 1.07704 -7.74185 6.32595
rclavicle -2.55935e-014 -1.94809e-014
rhumerus -21.0116 14.5513 -59.4662
rradius 96.7857
rwrist -6.33797
rhand -24.9901 -38.1699
rfingers 7.12502
rthumb 1.52114 -68.1442
lclavicle -2.55935e-014 -1.94809e-014
lhumerus -30.1164 -29.7966 91.1423
lradius 103.844
lwrist 31.3138
lhand -11.473 11.6039
lfingers 7.12502
lthumb 14.5648 41.0726
rfemur -52.0018 -19.9499 11.1674
rtibia 56.6528
rfoot -6.69009 8.03382
rtoes -5.84915
lfemur -19.2356 18.6317 -4.6876
ltibia 66.6225
lfoot -13.2984 26.237
ltoes -2.16602
280
root -4.26889 15.2194 -21.4399 6.84393 37.3434 -0.756423
lowerback 16.2355 0.418898 -6.2849
upperback -0.769791 -0.375532 2.7365
thorax -9.94899 0.24425 6.68549
lowerneck 3.91348 -10.7537 -12.3447
upperneck -0.714168 -14.9022 15.6868
head 1.29163 -7.58482 6.44994
rclavicle -8.5875e-014 6.75868e-015
rhumerus -20.6681 14.878 -59.705
rradius 96.2937
rwrist -6.26804
rhand -24.9043 -38.0937
rfingers 7.12502
rthumb 1.60396 -68.0675
lclavicle -8.5875e-014 6.75868e-015
lhumerus -30.1168 -29.623 91.1481
lradius 103.761
lwrist 31.1087
lhand -11.7385 11.714
lfingers 7.12502
lthumb 14.309 41.201
rfemur -52.1 -19.19 11.4257
rtibia 56.5192
rfoot -6.75015 7.74493
rtoes -6.56244
lfemur -18.913 17.8511 -4.57068
ltibia 66.5577
lfoot -13.1075 25.7509
ltoes -2.89926
281
root -4.26697 15.238 -21.3888 6.64403 36.4275 -0.933677
lowerback 16.2027 0.428436 -5.8814
upperback -0.78602 -0.28318 2.73347
thorax -9.96283 0.267636 6.425
lowerneck 3.71636 -10.6425 -12.2132
upperneck -0.473864 -14.7442 15.3568
head 1.33486 -7.49264 6.32227
rclavicle -5.32743e-014 -9.54166e-015
rhumerus -20.4406 15.0526 -59.8507
rradius 95.8652
rwrist -6.1023
rhand -24.8672 -38.2492
rfingers 7.12502
rthumb 1.63986 -68.2226
lclavicle -5.32743e-014 -9.54166e-015
lhumerus -30.226 -29.611 91.2476
lradius 103.813
lwrist 30.8577
lhand -11.961 11.6804
lfingers 7.12502
lthumb 14.0945 41.1824
rfemur -52.0999 -18.3592 11.6963
rtibia 56.4195
rfoot -6.90912 7.553
rtoes -7.12678
lfemur -18.3546 17.0787 -4.29666
ltibia 66.3147
lfoot -13.1876 25.1629
ltoes -3.25837
